<svg xmlns="http://www.w3.org/2000/svg" width="270" height="256" fill="none" viewBox="0 0 270 256">
  <path fill="#6E5BFE" d="M130.895 30.529c16.208-1.065 26.527 3.441 36.859 16.275 1.223 1.52 2.239 3.272 3.211 4.964.637 1.108.588 2.053 1.407 2.74 1.608-.542 7.737-7.184 9.763-8.591 3.09-2.145 6.858-4.944 10.343-6.449 4.686-2.023 11.557-4.674 16.61-5.117 4.307-.377 10.428.544 14.477-.717 2.381 5.457 3.109 9.418 4.032 15.23 1.544 3.915.775 9.477 1.635 13.154 1.641 7.014 1.448 12.725 1.442 19.922-.014 16.227-1.901 33.332-7.886 48.519-2.686 6.816-7.274 14.474-11.193 20.683-2.539 4.034-5.512 6.986-8.522 10.539-2.605 4.14-5.864 6.197-9.259 9.233-8.226 7.357-17.226 12.833-28.029 15.67-6.904 1.813-14.501 2.265-21.797 3.595l-.22.026c-19.17 2.183-46.967-3.994-62.148-16.159a100.565 100.565 0 0 1-22.374-24.705c-1.73-2.73-3.079-5.712-4.492-8.614-2.268-4.654-4.487-9.38-6.223-14.264-2.77-7.789-4.905-18.14-5.765-26.349-.58-5.532-.247-11.374-.248-16.939-.002-6.257-.283-12.676.193-18.914.417-5.471 3.729-26.2 6.919-29.88.54-.623.955-.703 1.75-.736 2.187-.092 4.546.33 6.747.423 3.221.136 6.584.032 9.766.581 8.589 1.481 19.294 7.163 26.139 12.388 2.424 1.85 4.684 4.129 6.94 6.187.908-.975 1.813-2.294 2.42-3.437 4.64-8.746 12.616-14.765 21.83-18.076 1.627-.585 3.706-.534 5.673-1.182Z"/>
  <path fill="#FEFEFE" d="M167.345 75.354c22.308-2.6 37.544 23.948 24.192 42.541a26.098 26.098 0 0 1-16.774 10.586c-.478.071-.958.128-1.439.172-15.817 1.402-27.082-12.309-28.27-27.061a24.844 24.844 0 0 1 5.877-18.28c4.365-5.078 9.853-7.444 16.414-7.958Z"/>
  <path fill="#1C3A53" d="M165.18 88.103c7.703-.05 12.903 4.575 14.403 11.922a16.969 16.969 0 0 1-2.466 12.79c-2.608 3.902-5.461 5.297-9.893 6.19-3.818.134-6.633-.313-9.751-2.823a15.616 15.616 0 0 1-5.638-10.468c-.908-8.65 4.262-16.738 13.345-17.61Z"/>
  <path fill="#FEFEFE" d="M100.115 75.848c14.382-1.105 26.92 9.699 27.954 24.087 1.034 14.388-9.832 26.872-24.225 27.835-14.293.956-26.672-9.818-27.698-24.106-1.026-14.288 9.686-26.72 23.969-27.816Z"/>
  <path fill="#1C3A53" d="M104.196 88.32c19.054-1.865 22.595 26.407 4.221 30.649-3.812.277-6.364.023-9.698-2.243-7.028-4.778-8.632-15.71-3.732-22.593a14.218 14.218 0 0 1 9.209-5.813Z"/>
  <path fill="#FDC00A" d="M130.501 113.253c.49-.58.988-.909 1.748-1.013 1.721-.233 11.283-.81 12.39.048.088.705.057.818-.103 1.513l.02.478.436.943c1.358 3.654 2.531 2.604 2.681 6.262.453 4.688.903 14.941-.337 19.603-.269 1.012-2.832 4.306-3.497 5.782-3.812 1.272-8.132 2.395-12.087.603-.859-.39-.757-1.239-1.318-1.862-1.283-.995-1.665-.646-2.275-2.403-.46-1.789-2.227-5.552-2.407-6.649-.684-4.18-.786-11.821.381-15.95.256-.904 1.469-2.838 1.963-3.643.095-.879.71-1.905 1.174-2.628.325-.218.915-.795 1.231-1.084Z"/>
  <path fill="#BB5037" d="M129.208 135.209a9.177 9.177 0 0 1-.235-.537c-.617-1.506-2.151-8.2-1.619-9.491l.324.047c.688 3.012 2.244 3.633 4.835 5.358 4.865-.045 11.515.233 13.256-5.408l.714.074c.226 10.997-8.092 24.37-17.275 9.957Z"/>
  <path fill="#EDA626" d="M128.096 116.965c-.021 2.255-.713 7.042-.418 8.263l-.324-.047c-.532 1.291 1.002 7.985 1.619 9.491.073.182.151.361.235.537-.859 3.561-.521 5.366-1.049 7.998-.46-1.789-2.227-5.552-2.407-6.649-.684-4.18-.786-11.821.381-15.95.256-.904 1.469-2.838 1.963-3.643Z"/>
  <path fill="#F1C1AC" d="M130.501 113.253c.491-.58.988-.909 1.749-1.013 1.72-.233 11.283-.81 12.389.048.088.705.057.818-.103 1.513l.021.478c-5.453.093-9.307.644-15.287.058.325-.218.915-.795 1.231-1.084Z"/>
  <path fill="#BB5037" d="M130.501 113.253c.49-.58.988-.909 1.748-1.013 1.721-.233 11.283-.81 12.39.048.088.705.057.818-.103 1.513-2.408-1.155-10.665-.518-14.035-.548Z"/>
  <path fill="#6E5BFE" d="M20.325 137.833c.88-.062 2.636-.112 3.5-.061 7.401.441 15.485 5.572 20.422 10.851 3.23 3.453 7.59 9.963 8.336 14.68.272 1.722.146 5.712.074 7.511-3.046 4.793-4.562 6.555-10.412 6.655-1.56.02-4.797.125-6.26-.069-8.762-1.165-15.875-7.617-21.321-14.077-4.782-5.67-5.379-11-4.644-18.027 2.661-3.525 5.708-6.595 10.305-7.463Zm230.062.019c5.188-.685 10.45 3.513 13.065 7.636.315 10.991.6 12.02-7.147 21.035-1.175 1.369-2.958 2.732-4.338 3.88-5.686 4.728-10.202 6.718-17.54 7.078-3.188.013-7.407.705-9.879-1.812-10.584-10.78 2.108-25.676 11.277-32.29 3.769-2.718 9.711-5.235 14.562-5.527Z"/>
</svg>
