<svg xmlns="http://www.w3.org/2000/svg" width="327" height="256" fill="none" viewBox="0 0 327 256">
  <path fill="#6A56FE" d="M108.723 29.416c1.814-.027 4.693.356 6.735.467 3.683.2 7.588.271 11.21.845 1.995.316 3.921 1.282 5.781 1.86 7.932 2.464 13.646 6.248 19.97 11.58 1.793 1.512 4.172 5.456 6.233 6.79.208.136.599.14.73-.096 1.116-2 1.899-4.136 3.244-6.021a42.352 42.352 0 0 1 15.337-13.358c6.497-3.33 17.607-2.979 24.408-1.046 8.14 2.314 17.154 11.4 20.991 18.959 5.862-5.935 9.978-8.495 16.851-12.719a300.04 300.04 0 0 0 3.321-1.655c2.598-.991 8.193-3.264 10.656-3.909 5.157-1.351 13.355-1.592 18.642-1.64 3.413 4.1 4.86 19.913 5.713 25.705 2.1 14.281 1.59 29.556-.2 43.814-2.943 23.418-13.333 45.923-31.713 61.293-13.956 11.669-30.519 18.549-49.065 18.393l-.067 1.165c-.15.503-.293 1.007-.43 1.513-3.568.413-9.707.24-12.809 1.13-.017.406-.017 2.108-.199 2.289l-.141-3.571.119-2.595c-2.669-.019-6.37.031-8.965-.274-12.553-1.475-23.465-5.673-34.229-12.19-2.228-1.349-5.877-5.068-8.023-6.035-.992-.447-8.202 3.389-9.748 3.794-1.271.388-3.41 1.078-4.722 1.067-5.375-.048-12.063.504-17.294-.222-4.065-.565-11.709-3.4-15.158-5.576-8.43-5.319-17.69-13.871-18.327-24.513-.216-3.422-.023-6.096 2.283-8.77 3.277-3.8 7.43-6.311 12.482-6.708-2.203-2.959-4.636-4.85-7.012-7.58-2.873-3.301 1.353-4.213 3.735-2.668 9.389 6.021 15.276 16.048 23.855 22.997 4.42 3.58 6.638 3.294 10.664.125-4.798-8.067-9.622-22.17-10.618-31.546-.389-3.665-.414-7.249-.958-11.08l-.305-2.347c-.696-3.657-.593-19.004.056-22.636l-.14-.423c1.091-2.343.927-7.71 1.136-10.522.211-2.852.635-4.773 1.118-7.519 1.019-5.802 1.411-11.569 4.853-16.567Z"/>
  <path fill="#168668" d="M184.04 178.608c1.558-.064 12.701-.274 13.527.07l-.067 1.165a60.65 60.65 0 0 0-.43 1.513c-3.568.413-9.707.239-12.809 1.13-.017.406-.017 2.108-.199 2.289l-.141-3.571.119-2.596Z"/>
  <path fill="#FEFEFE" d="M218.168 77.945c13.08-1.988 25.293 7.008 27.272 20.09 1.979 13.081-7.028 25.288-20.111 27.256-13.068 1.966-25.258-7.028-27.234-20.095-1.977-13.067 7.008-25.264 20.073-27.25Z"/>
  <path fill="#15334D" d="M216.527 89.566c3.221-.158 6.054.569 8.65 2.56a13.746 13.746 0 0 1 5.196 9.136c.989 7.436-3.546 14.923-11.315 15.908-17.741 1.124-18.674-25.055-2.531-27.605Z"/>
  <path fill="#FEFEFE" d="M177.048 117.949c-1.889 1.979-3.768 3.323-6.218 4.551a24.347 24.347 0 0 1-18.351 1.304c-11.864-3.972-18.201-18.137-14.143-29.837a24.57 24.57 0 0 1 12.473-14.1c11.636-5.588 26.167-1.431 31.41 10.607 2.826 6.489 2.401 13.261.043 19.761.401 1.024.148.818.97 1.3.861.002 1.607-.041 2.466-.097l-.811.826c-.76.748-1.142 1.408-1.634 1.907-1.471 1.695-1.222 3.304-1.891 5.104l-.312 1.243-.38.114c-.361-.431-.63-.747-1.032-1.14-.784.393-.778 2.195-.857 3.052-.207-2.147.393-3.555-1.733-4.595Z"/>
  <path fill="#665AD2" d="M177.049 117.949c2.304-2.459 3.735-4.719 5.213-7.714.402 1.024.148.818.971 1.3a34.99 34.99 0 0 0 2.465-.097l-.81.826c-.761.748-1.143 1.408-1.635 1.907-1.471 1.695-1.221 3.304-1.891 5.104l-.312 1.243-.38.114c-.361-.431-.63-.747-1.032-1.14-.783.393-.778 2.195-.857 3.052-.207-2.147.394-3.555-1.732-4.595Z"/>
  <path fill="#11414A" d="M161.469 90.552c7.188-.759 13.973 2.68 16.922 9.673.952 2.259 1.218 7.209-1.896 8.022-2.891.754-4.237-2.226-5.208-4.408-1.357-2.98-2.252-4.279-5.143-5.734-6.237-1.865-8.853 3.846-10.499 8.484-1.513 4.262-6.425 1.595-6.525-1.112-.271-7.336 5.292-13.48 12.349-14.925Z"/>
  <path fill="#F94B27" d="M185.698 111.438c3.633.181 6.869-.195 10.595.164 3.221.256 1.3.73 2.802 2.489.234 1.142.262 1.337.164 2.494.053 3.482 2.297 1.642 2.057 4.271-1.076 1.02-1.413-.054-1.845 1.13l.619.205c.497 1.171-1.914 6.512-2.501 8.091 2.065 2.743.781 7.884 1.19 11.215-.3.007-1.163.049-1.411.022-1.175.182-1.051-.019-1.806.666-.301 1.437.273 1.42-.369 2.267-.893.362-4.64.304-5.828.337-.974-.192-2.575-.088-3.614-.06l-.259-3.252-3.455-.085c-.044-2.121-.12-4.284-.007-6.4l.026-.394a289.69 289.69 0 0 1 .138-9.414c-.2-.737-.179-2.734-.196-3.594-.396-.635-.498-1.56-.636-2.315.67-1.8.42-3.409 1.891-5.104.492-.499.874-1.159 1.635-1.907l.81-.826Z"/>
  <path fill="#FDC104" d="M185.698 111.438c3.633.181 6.869-.195 10.595.164 3.221.256 1.3.73 2.802 2.489.234 1.142.262 1.337.164 2.494.053 3.482 2.297 1.642 2.057 4.271-1.076 1.02-1.413-.054-1.845 1.13-.733 1.205-1.599 1.975-3.01 2.192-5.361.825-9.941.209-14.463-2.588-.396-.635-.498-1.56-.636-2.315.67-1.8.42-3.409 1.891-5.104.492-.499.874-1.159 1.635-1.907l.81-.826Z"/>
  <path fill="#E7BC90" d="M196.293 111.602c3.221.257 1.3.731 2.802 2.489l-3.292.268c-.473-.837-.398-.48-.381-1.369.293-.328.639-.986.871-1.388Z"/>
  <path fill="#C7422A" d="M181.998 121.59c4.522 2.797 9.102 3.413 14.463 2.588 1.411-.217 2.277-.987 3.01-2.192l.619.205c.497 1.171-1.914 6.512-2.501 8.091-.611 1.669-1.246 2.37-1.766 4.412-1.776.087-3.591.162-5.362.264-6.118.351-4.539-6.254-8.267-9.774-.2-.737-.179-2.734-.196-3.594Z"/>
  <path fill="#DF4B46" d="M187.827 141.474c1.716.029 8.473-.184 9.541.045-1.175.182-1.052-.019-1.806.666-.301 1.437.273 1.42-.37 2.267-.892.362-4.639.304-5.827.337l-.501-.343c-.425-.892-.218-.88.011-2.073-.281-.699-.192-.488-1.048-.899Z"/>
  <path fill="#A1549D" d="M182.03 134.992c.092 1.081.092 2.399.637 3.302.759.118 1.697-1.007 2.412.423.98 1.958-1.136 3.21 2.749 2.757.856.411.766.2 1.047.899-.229 1.193-.436 1.181-.011 2.073l.501.343c-.974-.192-2.575-.088-3.614-.06l-.259-3.252-3.455-.085c-.044-2.121-.12-4.284-.007-6.4Z"/>
  <path fill="#DF4B46" d="M199.259 116.585c.321.937.118.768.811 1.328.553-.082.938-.133 1.496-.157.763.849.673 10.388.639 12.104.04 2.046.112 5.94-.326 7.876-.926.703-1.722-.004-2.89.808.012 1.041.076 1.945-.21 2.953-.409-3.331.875-8.472-1.19-11.215.587-1.579 2.998-6.92 2.501-8.091l-.619-.205c.432-1.184.769-.11 1.845-1.13.24-2.629-2.004-.789-2.057-4.271Z"/>
  <path fill="#C64E75" d="M198.989 138.544c-.234-5.961.58-2.811 2.674-4.126.47-.863.224-2.927.498-4.343l.043-.215c.04 2.046.113 5.94-.326 7.876-.925.703-1.721-.004-2.889.808Z"/>
  <path fill="#A1549D" d="M178.781 122.544c.079-.857.074-2.659.857-3.052.402.393.671.709 1.032 1.14l.38-.113.312-1.244c.138.755.24 1.68.636 2.316.017.859-.004 2.856.196 3.594a289.628 289.628 0 0 0-.138 9.413c-.755-.099-2.465-.029-3.295-.018a337.71 337.71 0 0 1 .02-12.036Z"/>
  <path fill="#6A56FE" d="M294.017 146.592c3.633-.294 7.263.837 10.246 3.046 8.462 6.271 4.934 19.181-.808 26.137-4.063 4.925-12.6 8.776-19.145 9.414-5.81.492-13.453-3.037-14.66-8.909-3.338-16.24 11.307-26.178 24.367-29.688Z"/>
  <path fill="#00A963" fill-opacity=".941" d="M169.93 211.508c-4.034-.007-20.589-4.974-24.506-7.436-7.364-4.629-14.725-10.897-17.341-19.706-.252-.851-.214-1.367.185-2.056 2.251-.968 16.3-.472 19.68-.379 12.061.329 26.994 9.567 33.215 19.292-.608.351-3.164-.042-4.353.426.572 1.302 1.653 1.154 2.969 1.232l-.102.072c-.68.486-1.315.93-1.463 1.761.868 1.749 6.249 2.934 8.003 1.889.808-.481 2.074-1.49 2.793-1.55-.073.861-.267 1.809.15 2.523 1.259.631 2.655-.318 3.583-1.139 3.147 1.758 4.677 1.497 8.29 1.431l.052.211c-1.656.059-2.433-.005-4.074.564-4.282 1.484-10.128 1.898-14.621 2.299l.193.37-.073.174c-1.156-.052-2.611-.072-3.726-.271l.574-.051c-2.664-.162-6.618.178-9.428.344Z"/>
  <path fill="#00A963" fill-opacity=".694" d="M211.438 190.615c9.147-8.26 27.481-11.021 39.317-8.973-.583.07-1.559-.015-2.14.938-1.815 2.977-2.703 8.025-3.952 11.491-.071.197.264.344.504.508l.828-.34c-1.963 3.831-7.621 7.503-11.267 9.514-4.009 2.211-8.751 3.519-13.045 5.27.454-.644.717-.637 1.09-1.441.924-1.99-2.67-2.273-4.026-2.22 2.092-.988 1.915-2.056 3.476-2.728-.483.909-.599.757-.407 1.533 1.254.479 2.646-.182 3.949-.635-.44.287-.832.631-1.237.965l-.026.405c1.828.8 5.498-.846 6.219-2.466-.547-.298-1.575.026-2.319.154.905-.448 1.548-.709 2.008-1.553-.444-.635-.461-.486-1.314-.812l.493-.378c1.725-.485 1.8-.353 3.149.82.36-.302.717-.607 1.071-.916.861-.755 1.245-1.047 1.319-2.172-.553-.543-1.431-.566-2.25-.704l-.098-.494c1.247-1.195 3.15-1.897 2.711-3.697l-.62-.346.147-.246c1.315-.158 1.467-.401 2.347-1.348-.018.781-.029.9.313 1.596 1.813.941 5.279-3.989 4.768-5.634l-.477-.179c-1.434.347-2.484 1.528-3.526 2.547-3.002-4.941-6.612-.129-8.363 2.993-.784 1.398-1.091 1.647-2.324 2.614-.104.578.555 1.552 1.029 1.76l-.989 1.79c-.659 1.004-.38.933-1.3 1.15-1.035-.308-2.304-1.023-3.076-.849-.622.397-.658.568-.957 1.256-.98.069-.72.192-1.451-.269-.892-1.463.727-3.511.492-5.219-.196-.217-.324-.479-.65-.419-2.783.514-5.938 1.213-8.592 2.224-3.638 1.386-6.329 6.863-10.966 5.063.438-.825.646-1.04 1.252-1.736l.493.243c.726-.06 6.545-4.151 7.687-4.753.887-.467 3.192-3.987 3.329-4.916l-.303-.138c-.935.579-.558.961-1.803 1.479l-.184.075-.329-.807Z"/>
  <path fill="#00A25C" fill-opacity=".925" d="M184.261 182.486c3.102-.89 9.241-.717 12.809-1.13.137-.506.28-1.01.43-1.513l.083 13.396c.018 2.027.171 5.627-.027 7.492-1.335 1.579-2.031-.585-2.78-.937-.108.789.598 1.769 1.025 2.522l-.091.305-.292-.237c-.085-.447-.063-.423-.376-.751-.948.765-1.533 1.568-2.704 1.055-.261-.885-.063-.812.43-1.898l-.151-.361-.646.005c-.497.753-.306 1.014-.301 2.1-.793.378-1.704-1.057-2.846-1.366-2.583 2.61-4.912 1.143-4.005-.889l.259.656c.483-.21.758-1.297 1.004-1.922l-.112-.239c-.714.442-1.232.979-1.859.836-.055-1.061-.108-1.43-.343-2.467-.394-.873.039-14.174.153-15.939l.141 3.571c.182-.181.182-1.883.199-2.289Z"/>
  <path fill="#00A963" fill-opacity=".369" d="M201.296 201.168c4.637 1.8 7.328-3.677 10.966-5.063 2.654-1.011 5.809-1.71 8.592-2.224.326-.06.454.202.65.419.235 1.708-1.384 3.756-.492 5.219.731.461.471.338 1.451.269-.644.466-1.386.859-1.544 1.613.458.977 1.22.864 2.207.904l-.903.329c-1.561.672-1.384 1.74-3.476 2.728-1.508.172-7.242 3.039-8.523 3.927l-.182.315c1.054 1.072 4.035.212 5.625.432-1.247.571-2.916.181-4.03.507-5.966 1.743-11.288 1.471-17.431 1.233-3.251-.125-7.181.48-10.493.2 5.631-.921 13.316-1.658 19.284-2.465l1.141-3.338c-1.157.441-2.231.909-3.462 1.065 1.25-1.089 3.992-1.77 4.283-3.544-1.139-1.607-3.344-.14-4.754-1.255.36-.492.681-.827 1.091-1.271Zm12.551 2.808c1.017.208 2.682.488 3.59.875.827.121.994.079 1.793-.059.604-.638.422-.327.648-1.23-.674-1.952-1.272-1.901.224-3.399.652-1.902-1.222-4.193-3.215-3.845-5.519 1.162-6.764 2.649-3.04 7.658Z"/>
  <path fill="#00A963" fill-opacity=".141" d="M216.887 196.318c1.993-.348 3.868 1.943 3.215 3.845-1.496 1.498-.897 1.447-.223 3.399-.227.903-.044.592-.649 1.23-.799.138-.966.18-1.793.059-.907-.387-2.572-.667-3.59-.875-3.724-5.009-2.479-6.496 3.04-7.658Z"/>
  <path fill="#00A963" fill-opacity=".671" d="M181.163 201.223c.888.873 1.399 1.793 2.181 2.579.207.987 1.658 1.65 2.614 1.383 1.185-.33 2.605-1.668 3.814-1.044.107.888.021 2.127.423 2.658 2.822-.57 2.859-.921 5.297.339l1.653-.081c.971.076 2.376.228 3.315.188l.216-.007c1.231-.156 2.305-.624 3.462-1.065l-1.141 3.338c-5.968.807-13.653 1.544-19.284 2.465-3.022.053-11.006.049-13.783-.468 2.81-.166 6.764-.506 9.428-.344l-.574.051c1.115.199 2.57.219 3.726.271l.073-.174-.193-.37c4.493-.401 10.339-.815 14.621-2.299 1.641-.569 2.418-.505 4.074-.564l-.052-.211c-3.613.066-5.143.327-8.29-1.431-.928.821-2.324 1.77-3.583 1.139-.417-.714-.223-1.662-.15-2.523-.719.06-1.985 1.069-2.793 1.55-1.754 1.045-7.135-.14-8.003-1.889.148-.831.783-1.275 1.463-1.761l.102-.072c-1.316-.078-2.397.07-2.969-1.232 1.189-.468 3.745-.075 4.353-.426Z"/>
  <path fill="#00A963" fill-opacity=".639" d="M183.768 197.143c.235 1.037.288 1.406.343 2.467.627.143 1.145-.394 1.86-.836l.112.239c-.247.625-.522 1.712-1.005 1.922l-.259-.656c-.906 2.032 1.422 3.499 4.005.889 1.142.309 2.053 1.744 2.847 1.366-.006-1.086-.197-1.347.3-2.1l.646-.005.151.361c-.493 1.086-.691 1.013-.429 1.898 1.17.513 1.756-.29 2.703-1.055.313.328.291.304.376.751l.292.237.091-.305c-.427-.753-1.133-1.733-1.025-2.522.749.352 1.446 2.516 2.781.937-.005.65.009 1.394-.033 2.035-2.926 2.481-5.785-1.16-7.425 2.162.076.941-.081.631.531 1.211.832.213 2.067-.377 2.932-.694.53.457 1.474 1.222 1.93 1.693-2.438-1.26-2.474-.909-5.297-.339-.402-.531-.316-1.77-.423-2.658-1.209-.624-2.629.714-3.814 1.044-.956.267-2.407-.396-2.614-1.383 1.029-1.319.361-4.41.424-6.659Z"/>
  <path fill="#00A963" fill-opacity=".831" d="M218.747 205.361c1.356-.053 4.95.231 4.026 2.221-.373.803-.636.797-1.09 1.441-2.419.255-3.684.401-6.016 1.013-1.59-.22-4.571.639-5.625-.432l.182-.316c1.281-.887 7.015-3.755 8.523-3.927Z"/>
  <path fill="#00A25C" fill-opacity=".957" d="M250.755 181.642c.873 2.802-2.95 10.21-4.759 12.596l-.829.341c-.24-.164-.574-.311-.503-.508 1.248-3.466 2.136-8.514 3.951-11.491.581-.953 1.558-.868 2.14-.938Z"/>
  <path fill="#00A963" fill-opacity=".196" d="m234.871 192.338.62.346c.439 1.8-1.464 2.502-2.711 3.697-1.132.76-2.164 2.355-3.191 3.466l-.493.378-.37.078-.64-.125-.182-.286c.181-.757.203-.943-.108-1.661l.989-1.79c1.09-1.264 2.002-1.902 3.378-2.761.701-.462 1.909-.974 2.708-1.342Z"/>
  <path fill="#00A963" fill-opacity=".745" d="M228.785 196.441c-.474-.208-1.132-1.182-1.028-1.76 1.233-.967 1.539-1.216 2.323-2.614 1.752-3.122 5.361-7.934 8.363-2.993-.274.449-.76 1.3-1.078 1.67-.88.947-1.031 1.19-2.347 1.348 1.106-.714 2.742-1.688 2.272-3.294-1.915-1.112-6.402 1.741-6.489 3.942l.397.692.965.248c-1.376.859-2.287 1.497-3.378 2.761Z"/>
  <path fill="#00A963" fill-opacity=".863" d="m232.163 193.68-.965-.248-.397-.692c.087-2.201 4.574-5.054 6.489-3.942.47 1.606-1.166 2.58-2.272 3.294l-.146.246c-.8.368-2.007.88-2.709 1.342Z"/>
  <path fill="#00A963" fill-opacity=".902" d="M229.096 200.225c.853.326.87.177 1.314.812-.46.844-1.103 1.105-2.008 1.552-1.004.536-1.527.647-2.637.943-1.303.453-2.695 1.114-3.949.635-.192-.777-.076-.625.407-1.533l.903-.329 1.908-.885c.801-.089 2.992-.681 3.692-1.117l.37-.078Z"/>
  <path fill="#00A963" fill-opacity=".4" d="M238.443 189.074c1.042-1.019 2.092-2.201 3.526-2.547l.477.179c.511 1.645-2.955 6.575-4.768 5.634-.342-.696-.331-.815-.313-1.596.318-.37.803-1.221 1.078-1.67Z"/>
  <path fill="#00A963" fill-opacity=".545" d="M193.562 205.445c-.865.317-2.1.907-2.932.694-.612-.58-.455-.27-.531-1.211 1.64-3.322 4.499.319 7.425-2.162l-.111.681-.468.521c-.59.721-.831.949-1.13 1.838.226.968.32.956 1.33 1.251l-1.653.08c-.456-.47-1.4-1.235-1.93-1.692Zm-1.32.255.62-.644c-.109-.977-.553-.997-1.535-1.207-.578.897-.74.795-.582 1.572.676.236.782.261 1.497.279Z"/>
  <path fill="#00A963" fill-opacity=".502" d="M191.328 203.849c.981.21 1.425.23 1.535 1.207l-.62.644c-.715-.018-.822-.043-1.498-.279-.158-.777.004-.675.583-1.572Z"/>
  <path fill="#00A25C" fill-opacity=".788" d="m211.767 191.422.184-.075c1.246-.519.868-.9 1.803-1.48l.304.139c-.138.929-2.443 4.449-3.329 4.916-1.143.601-6.962 4.692-7.688 4.753l-.493-.243c.61-.94 1.028-1.395 1.785-2.233l.359.153c1.458.148 6.597-4.09 7.075-5.93Z"/>
  <path fill="#00A25C" fill-opacity=".886" d="M204.333 197.199c1.43-1.959 5.13-4.924 7.105-6.584l.329.807c-.478 1.84-5.617 6.078-7.075 5.93l-.359-.153Z"/>
  <path fill="#00A963" fill-opacity=".588" d="M229.589 199.847c1.027-1.112 2.059-2.706 3.192-3.466l.098.494c.818.138 1.696.161 2.249.703-.074 1.126-.458 1.418-1.319 2.173a71.81 71.81 0 0 1-1.071.916c-1.349-1.174-1.424-1.306-3.149-.82Z"/>
  <path fill="#00A963" fill-opacity=".263" d="m199.61 202.899.595-.46c1.411 1.114 3.615-.352 4.754 1.255-.291 1.774-3.033 2.455-4.283 3.544l-.216.006.015-.22c.675-.412 1.076-1.307 1.058-2.082-.836-1.099-1.477-1.024-1.923-2.043Z"/>
  <path fill="#00A963" fill-opacity=".267" d="M222.463 199.788c.299-.688.335-.86.957-1.257.772-.173 2.041.542 3.076.849.92-.216.641-.145 1.3-1.149.311.718.289.904.108 1.661l.182.286.64.125c-.7.436-2.891 1.028-3.692 1.117-.098-.168-2.419-1.597-2.571-1.632Z"/>
  <path fill="#00A963" fill-opacity=".161" d="M199.61 202.899c.446 1.019 1.087.944 1.923 2.043.018.775-.383 1.67-1.058 2.082-.798-.063-1.063-.049-1.798-.431-.396-1.095.669-.805.451-2.139l-.424-.167c-.594.422-.913.696-1.441 1.172l-.237-.196-.081-1.295.469-.521.136.589.355.117c.702-.438 1.07-.736 1.705-1.254Z"/>
  <path fill="#00A963" fill-opacity=".486" d="M228.402 202.59c.744-.128 1.772-.452 2.319-.154-.721 1.62-4.391 3.266-6.219 2.466l.026-.405c.405-.334.797-.678 1.237-.965 1.11-.295 1.633-.407 2.637-.942Z"/>
  <path fill="#00A963" fill-opacity=".227" d="m196.945 203.968.08 1.296.238.196c.527-.476.847-.751 1.441-1.173l.423.167c.219 1.334-.847 1.044-.45 2.139.735.382 1 .368 1.798.432l-.015.22c-.939.04-2.344-.112-3.315-.188-1.01-.295-1.104-.283-1.33-1.251.299-.889.54-1.116 1.13-1.838Z"/>
  <path fill="#00A963" fill-opacity=".22" d="M222.463 199.788c.152.035 2.473 1.464 2.571 1.632l-1.908.885c-.987-.04-1.749.072-2.207-.905.158-.753.9-1.146 1.544-1.612Z"/>
</svg>
