<svg xmlns="http://www.w3.org/2000/svg" width="259" height="256" fill="none" viewBox="0 0 259 256">
  <path fill="#6A57FE" d="M147.62 71.531c2.005-2.034 3.987-4.239 6.209-6.035 9.433-7.628 21.902-11.328 33.929-11.416 1.239-.009 2.517.18 3.424 1.096 3.41 3.44 7.666 29.849 8.101 35.806.475 6.513.348 13.287.187 19.812-.076 3.079-.878 5.882-1.354 8.895-.312 1.973-.5 3.978-.945 5.927-2.537 11.12-7.987 22.854-15.304 31.639-2.62 3.147-5.819 6.136-8.798 8.953-10.31 9.75-28.554 17.818-42.693 17.484a9.575 9.575 0 0 1-.862-.06c-3.723.339-8.729.19-12.487.082-24.622-.613-47.144-15.902-59.1-37.093-11.39-20.186-11.869-41.468-9.194-63.897.853-7.1 2.344-14.11 4.453-20.944 1.082-3.604 1.485-6.943 6.44-6.523 4.04.343 8.15.09 12.185.35 7.348.942 15.898 6.18 21.71 10.76 1.285 1.012 4.085 4.13 5.276 5.42 12.827-12.827 34.611-15.023 47.519-1.534.412.43.855.886 1.304 1.278Zm24.872 48.656c.149-5.022.595-10.964-.163-15.92-.126-.831-1.203-2.795-1.59-4.529-4.356 2.333-10.326 5.553-15.051 6.551-.629.61-11.624 3.267-13.718 3.989-1.585.397-4.51 1.209-6.019 1.365-.249-.019-4.528 1.093-4.819 1.242-.875 1.068-.592 1.377-.499 2.627.485 6.506 3.905 12.004 8.936 16.215a18.953 18.953 0 0 0 13.834 4.257 21.35 21.35 0 0 0 16.138-10.169c.991-1.648 1.833-4.374 2.951-5.628Zm-61.068-8.13c-.925-.54-3.984-1.039-5.155-1.261a174.623 174.623 0 0 0-6.211-1.262l-.362-.02c-2.284-.777-5.503-1.274-7.906-1.625l-.542-.084c-5.108-1.661-10.789-4.184-15.366-7.055-.483 1.689-1.277 3.555-1.623 5.171-2.714 12.654 2.7 26.017 15.815 29.847 11.346 3.314 22.037-5.647 25.381-16.06.295-.92 1.515-5.262 1.279-5.957-1.181-1.017-3.882-1.19-5.31-1.694Z"/>
  <path fill="url(#a)" d="M155.688 106.288c9.283 13.863-8.287 26.926-17.922 13.98-1.193-1.603-2.024-5.603-1.597-7.627 2.814-.096 4.227-.365 7.015-1.062.979-.244 2.548.329 3.686-.125.435-.787.825-1.073 1.15-1.825-1.125-.756-3.627.716-5.943.653l-.107-.004c2.094-.722 13.089-3.379 13.718-3.99Z"/>
  <path fill="#13304A" fill-opacity=".878" d="m91.248 107.805.542.084c-.172.69-.269 1.548-.373 2.263.744.228 2.178.342 3.075.482 1.462.228 3.154.876 4.471 1.086 3.251.516 5.313.581 8.486 1.614.846-.245 3.111-1.066 3.851-.623.151 1.422.417 2.753-.035 4.117-2.116 6.387-6.333 9.134-12.825 8.822l1.045-.326c-.653-2.005-3.69-2.334-5.47-3.644-2.395-1.764-1.525-.77-1.338-3.315l-.273-.282c-.135.341-.269.682-.4 1.025-.225-.22-.34-.447-.5-.715-.601.051-.692.068-1.279-.034-.465-.979-.46-6.427-.17-7.643.073-.304.194-.288.525-.523l-.592-.475c.162-.669.807-1.343 1.26-1.913Z"/>
  <path fill="#FDC205" d="M116.61 127.947c4.798-.108 9.598-.093 14.396.046-.031 3.132.028 7.799-.456 10.821-1.3 1.21-1.559 1.592-2.518 3.07-3.072.534-4.928.694-8.043-.003-2.293-2.238-2.924-2.639-3.42-5.809-.743-1.472-.882-1.648-2.204-2.661-.031-1.84-.675-3.619.156-4.978.68-.552 1.204-.472 2.089-.486Z"/>
  <path fill="#7363D4" d="M114.365 133.411c-.031-1.84-.675-3.619.156-4.978.68-.552 1.204-.472 2.089-.486.075 2.709-.013 5.416-.041 8.125-.743-1.472-.882-1.648-2.204-2.661Z"/>
  <path fill="#0E2F43" fill-opacity=".753" d="M91.79 107.889c2.402.351 5.622.848 7.906 1.625-.79.028-1.736-.025-2.398.327.266.623.348.5 1.087.856 2.861.842 5.299 2.339 7.884.099 1.171.222 4.229.721 5.155 1.261l-.124.654c-.74-.443-3.005.378-3.851.623-3.173-1.033-5.235-1.098-8.486-1.614-1.316-.21-3.009-.858-4.47-1.086-.897-.14-2.332-.254-3.076-.482.104-.715.201-1.573.373-2.263Z"/>
  <path fill="#13304A" fill-opacity=".957" d="m89.988 109.718.593.475c-.332.235-.453.219-.526.523-.29 1.216-.295 6.664.17 7.643.587.102.678.085 1.278.034.162.268.276.495.501.715.131-.343.264-.684.4-1.025l.273.282c-.187 2.545-1.058 1.551 1.338 3.315 1.78 1.31 4.817 1.639 5.47 3.644l-1.045.326c-4.537-1.395-7.806-4.112-9.04-8.937-.413-1.616-.284-5.644.588-6.995Z"/>
  <path fill="#13304A" fill-opacity=".843" d="m141.97 110.278.106.004c2.316.063 4.819-1.409 5.943-.653-.324.752-.715 1.038-1.149 1.825-1.138.454-2.707-.119-3.687.125-2.788.697-4.2.966-7.014 1.062l-.218-.998c1.509-.156 4.434-.969 6.019-1.365Z"/>
  <path fill="#13304A" fill-opacity=".737" d="M100.058 109.534c2.078.383 4.149.804 6.211 1.261-2.585 2.241-5.023.744-7.884-.098.97-.094 1.024.047 1.732-.435l-.059-.728Z"/>
  <path fill="#0E2F43" fill-opacity=".682" d="m99.696 109.514.362.02.059.728c-.708.482-.763.341-1.732.435-.74-.356-.821-.233-1.087-.856.662-.352 1.609-.299 2.398-.327Z"/>
  <path fill="#6A57FE" d="M32.137 148.607c4.881-.17 7.788-.232 11.893 3.047 4.228 3.376 7.208 8.108 7.797 13.561.734.617 1.983 1.507 2.282 2.411 1.291 4.118-1.99 7.778-4.559 10.506-3.958 4.202-6.976 5.952-12.24 7.942-4.949 1.642-11.458-.783-15.369-3.961-12.698-10.32-6.158-32.428 10.196-33.506Zm181.202.018c15.326-1.068 24.901 17.492 15.815 29.591-3.964 5.279-8.187 7.455-14.726 8.293-9.881-.279-14.409-6.242-19.544-13.686a88.184 88.184 0 0 1-.129-2.18c-.201-4.615 2.672-12.666 6.035-16.028 4.475-4.472 6.295-5.735 12.549-5.99ZM81.614 192.049c7.989-.634 20.049 2.454 25.543 8.964 1.135 2.22 3.427 5.136 3.004 7.711-.255 1.551-1.189 2.005-2.249 2.752l-6.1.068c-8.898.032-20.45.665-27.763-5.953-2.372-2.146-1.884-5.803-1.765-8.776 3.072-3.285 5.177-3.787 9.33-4.766Zm79.261.039c5.339-.276 9.296.136 12.995 4.481.246.974.454 2.289.469 3.284a8.338 8.338 0 0 1-2.499 6.089c-5.103 5.062-15.031 5.617-21.715 5.61-1.895 0-10.563.491-12.597-.542-.481-.244-1.009-1.104-1.11-1.622-2.268-11.554 16.928-16.361 24.457-17.3Z"/>
  <path fill="#04A05D" d="M117.027 183.713c3.758.109 8.763.257 12.487-.082l.02 2.093c-.008 6.038 1.392 11.866 1.055 17.812-.113 1.99-3.042 4.045-4.629 4.959-1.668.057-3.718.178-5.353.132-1.622-.992-3.027-2.06-3.392-4.084-.475-2.08-.239-17.885-.188-20.83Z"/>
  <path fill="#1F826E" d="M117.027 183.713c3.758.109 8.763.257 12.487-.082l.02 2.093c-2.375 1.566-10.405-1.192-12.19.486-.573 4.369.163 13.333-.129 18.333-.475-2.08-.239-17.885-.188-20.83Z"/>
  <defs>
    <linearGradient id="a" x1="136.603" x2="157.079" y1="113.252" y2="117.492" gradientUnits="userSpaceOnUse">
      <stop stop-color="#172D4D" stop-opacity=".957"/>
      <stop offset="1" stop-color="#133347"/>
    </linearGradient>
  </defs>
</svg>
