<svg xmlns="http://www.w3.org/2000/svg" width="256" height="273" fill="none" viewBox="0 0 256 273">
  <path fill="#6955FE" d="M95.17 89.996c1.869-7.981 13.329-17.36 21.466-18.625 15.336-2.384 25.087 3.309 32.986 16.143.429.707.87 1.405 1.324 2.096 8.896-12.983 22.895-17.43 37.997-17.26.403 3.19 1.496 6.249 2.287 9.363 1.834 7.219 2.066 13.824 2.417 21.165.6 12.57.717 25.345-2.347 37.653-.909 3.686-2.421 8.139-3.773 11.72-.713 1.891-1.844 3.798-2.557 5.553 23.211 23.683-7.858 44.015-24.071 29.901-8.772 4.404-15.947 7.826-25.791 9.156-2.515.34-4.782.883-7.429.772-2.328.013-9.278.151-11.242-.31-.787-1.053-4.818-.797-6.4-1.001-8.34-1.077-17.573-3.938-24.447-8.852-4.67 2.505-6.383 3.77-11.581 4.6-13.45 2.145-25.523-9.591-21.398-23.137 1.336-4.384 4.533-7.831 7.458-11.251a75.271 75.271 0 0 1-6.886-18.99c-3.854-17.621-3.112-46.306 2.453-63.564.171-.531.793-2.201 1.278-2.31 5.252-1.183 14.074.474 18.706 2.255a44.256 44.256 0 0 1 15.93 10.69c1.317 1.384 2.42 2.987 3.62 4.233Z"/>
  <path fill="#FEFEFE" d="M143.701 146.985c-3.53-1.823-6.215-4.003-8.566-7.245a22.674 22.674 0 0 1-3.894-16.987 19.501 19.501 0 0 1 7.868-12.83c4.393-3.126 9.88-4.077 15.145-3.168a22.22 22.22 0 0 1 14.108 8.969c4.58 6.51 4.448 11.65 3.133 19.235 4.068.278 5.928.434 8.888 3.474 3.903 4.008 2.722 11.19-2.807 12.686-3.34.904-10.204-3.106-13.947-3.457-2.087-.196-5.88-.08-7.587-.528-3.368-.268-6.652-1.113-9.99-1.175-.687-.012-1.756.664-2.351 1.026Z"/>
  <path fill="url(#a)" d="M171.495 134.959c4.068.278 5.928.434 8.888 3.474 3.903 4.008 2.722 11.19-2.807 12.686-3.34.904-10.204-3.106-13.947-3.457-2.087-.196-5.88-.08-7.587-.528.232-.54.356-1.082.489-1.652 1.324-5.649 7.349-8.241 11.959-10.504 1.173.151 1.85.305 3.005-.019Z"/>
  <path fill="#13334E" d="M146.151 116.067c16.972-1.038 18.845 21.434 3.999 25.365-15.752 2.268-19.411-21.588-3.999-25.365Z"/>
  <path fill="#FEFEFE" d="M74.669 134.502c-1.763-4.85-1.304-11.18.838-15.858 4.665-10.187 18.022-15.103 28.139-10.201a19.155 19.155 0 0 1 9.608 10.943c1.837 5.321 1.074 12.489-1.412 17.52a22.655 22.655 0 0 1-9.578 9.971c-5.063-2.4-7.123-.301-12.767.165-1.682.463-6.718.309-8.724.687-3.992.752-8.296 2.583-12.13 4.015-2.867-1.178-5.002-2.294-6.052-5.506a7.527 7.527 0 0 1 .569-5.883c1.745-3.266 5.209-4.86 8.702-5.41.949-.149 1.897-.147 2.807-.443Z"/>
  <path fill="#FD9D9D" d="M74.669 134.502c1.14.761 2.922 1.229 4.242 1.753 5.016 1.988 9.229 5.317 10.586 10.787-1.682.463-6.718.309-8.724.687-3.992.752-8.296 2.583-12.13 4.015-2.867-1.178-5.002-2.295-6.052-5.507a7.524 7.524 0 0 1 .569-5.882c1.745-3.266 5.209-4.861 8.702-5.41.949-.149 1.897-.147 2.807-.443Z"/>
  <path fill="#13334E" d="M96.79 116.081c7.015.005 11.692 4.313 12.414 11.297a13.634 13.634 0 0 1-3.005 10.073c-2.346 2.854-4.795 3.844-8.31 4.193-15.836-.38-16.666-24.029-1.099-25.563Z"/>
  <path fill="#FAC30A" d="M116.862 139.593c4.388-.244 9.42-.083 13.872-.066.084 2.607.227 5.318-.215 7.891-.799.937-2.193 2.707-3.135 3.336-3.35 1.969-5.308 1.881-8.566-.074-1.042-.344-1.32-.399-2.065-1.18-.21-.992-1.301-2.126-1.978-2.88-.331-2.425-.869-4.398.029-6.623.772-.619.81-.402 2.058-.404Z"/>
  <path fill="#FD9D9D" d="M118.818 150.679c2.206.165 6.317.17 8.566.075-3.35 1.968-5.308 1.881-8.566-.075Z"/>
  <path fill="#01AA62" d="M128.225 215.245c1.943-3.039 5.358-6.291 7.944-8.745 6.499-6.167 15.115-9.276 24.005-9.462 2.157-.045 6.094-.825 8.006.166.46.238.348 3.104.239 3.673-.313 5.376-4.882 10.876-8.955 14.19-13.846 11.261-34.964 10.465-51.762 9.311-10.085-.692-20.48-6.306-26.412-14.313-2.014-2.718-3.557-5.009-4.05-8.468-.201-1.098-.635-1.717-.488-2.975.588-.985.802-.994 1.934-1.103 13.737-1.329 25.878 2.134 34.974 13.002.447.534 1.474 1.583 2.131 1.759.528-1.817.35-12.053.646-14.958 1.964.461 8.914.324 11.242.311.367 1.386.569 15.465.546 17.612Z"/>
  <path fill="#6955FE" d="M96.477 246.319c-5.698-1.173-17.053-3.5-15.919-12.012.843-4.124 6.386-4.694 9.796-4.767 8.309-.177 19.087.829 24.522 7.971 2.298 3.019.722 6.33-2.214 8.141-.371.229-.747.452-1.127.668-1.83-.673-12.908-.526-15.058-.001Zm31.805-5.031c2.424-11.652 19.316-12.358 28.825-11.575 2.193.181 3.899 1.727 5.404 3.16.14.628.506 2.2.39 2.78-1.39 7.001-9.655 9.001-15.516 10.596-.188.051-.411.046-.598.047-2.189-.403-12.237-.714-14.133.007-1.341-.466-1.864-.824-3.044-1.559-.407-1.054-.972-2.411-1.328-3.456Z"/>
  <path fill="#6955FE" fill-opacity=".969" d="M96.477 246.319c2.15-.525 13.228-.672 15.058.001-2.021.423-12.925.234-15.058-.001Z"/>
  <path fill="#6955FE" fill-opacity=".965" d="M132.654 246.303c1.896-.72 11.945-.41 14.133-.007-2.29.355-11.843.406-14.133.007Z"/>
  <path fill="#060005" fill-opacity=".016" d="M92.886 196.133c.878-.133 1.047-.311 1.753.005l-.102.316c-.8.443-1.067.354-1.974.256-.571-.024-1.274-.135-1.852-.21.712-.214 1.657-.059 2.175-.367Z"/>
  <defs>
    <linearGradient id="a" x1="156.869" x2="182.3" y1="142.309" y2="143.075" gradientUnits="userSpaceOnUse">
      <stop stop-color="#F98081"/>
      <stop offset="1" stop-color="#FFB7B8"/>
    </linearGradient>
  </defs>
</svg>
